<?xml version="1.0" encoding="utf-8"?>
<!-- Generator: Adobe Illustrator 16.0.3, SVG Export Plug-In . SVG Version: 6.00 Build 0)  -->
<!DOCTYPE svg PUBLIC "-//W3C//DTD SVG 1.1//EN" "http://www.w3.org/Graphics/SVG/1.1/DTD/svg11.dtd">
<svg version="1.1" id="Warstwa_1" xmlns="http://www.w3.org/2000/svg" xmlns:xlink="http://www.w3.org/1999/xlink" x="0px" y="0px"
	 width="71.73px" height="72.042px" viewBox="0 0 71.73 72.042" enable-background="new 0 0 71.73 72.042" xml:space="preserve">
<path fill-rule="evenodd" clip-rule="evenodd" fill="#DD005C" d="M50.461,17.444c2.674-0.279,5.317,4.227,5.536,6.546
	c1.973,2.013,3.25,5.638,1.515,9.478c-1.653,3.844-5.825,7.176-10.498,8.997c-1.344,2.545,3.126,2.301-5.658,6.258
	c1.105,0.537,0.999,1.246,0.285,2.047c8.198-4.262,11.489-3.703,17.526-10.186c0.455,0.729-2.239,3.449,0.015,2.889
	c2.663-2.365,5.496-5.713,6.858-10.539c1.389-4.78,0.725-10.563-1.549-15.078C59.907,8.714,51.506,2.694,41.639,0.605
	c-9.882-1.842-20.031,0.557-28.508,6.731C8.99,10.398,5.008,15.09,3.005,20.438c-1.965,4.863-2.953,10.068-2.997,15.08
	c-0.082,3.592,0.477,8.29,1.709,12.098c1.212,3.818,2.978,6.666,3.886,7.203c3.315,8.875,12.53,16.781,23.149,17.156
	c8.785,0.252,18.396-0.018,28.328-4.311c-1.129-0.824-5.762-0.096-8.678-1.002c3.176-0.086,3.873-1.559,6.187-2.662
	c4.597-1.961,10.536-6.336,13.682-12.525c3.13-6.105,3.808-12.564,3.316-15.707C69.655,46.188,65.997,53.442,56.84,59.53
	c4.081-3.197-1.541-0.195,1.5-3.129c-6.724,4.029-15.146,5.166-23.744,5.008c-4.539-0.164-8.225-0.287-11.409-2.209
	c-3.222-1.77-5.838-4.725-7.391-8.17c3.546,4.947,7.427,7.379,10.993,8.803c-1.92-2.004-7.71-4.99-10.337-9.881
	c-4.563-7.611-5.43-17.356-2.496-25.601c2.597-7.389,11.195-13.052,19.751-13.477c1.226-0.309,0.376-0.902,1.975-1.044
	c5.263-0.259,7.759,3.071,9.755,2.401c-1.365-0.399-0.768-0.875,0,0C48.646,14.37,50.354,16.105,50.461,17.444 M55.784,40.862
	C56.874,39.636,56.928,40.46,55.784,40.862C50.678,45.737,53.478,41.401,55.784,40.862 M4.462,44.524
	c0.51,0.045,1.234,3.557,2.249,5.625C5.951,50.661,4.492,47.042,4.462,44.524 M10.539,45.333c-0.603-2.51,0.551,0.445,1.185,2.111
	C12.623,49.802,10.984,47.161,10.539,45.333 M13.471,60.298c1.119,0.262,4.234,2.25,4.67,3.693c2.386,0.521,3.176,1.822,6.681,2.826
	c-0.283-0.57,1.941,0.225,0,0c1.028,2.092-4.621-0.896-6.678-2.359l-0.003-0.467C16.465,62.952,14.896,61.706,13.471,60.298
	 M31.27,63.478c0.871-0.615,0.361-1.449,4.588-1.215C36.751,63.261,34.725,63.733,31.27,63.478 M40.292,68.062
	c-2.038-1.037,2.607-0.891,4.908-1.49C45.338,67.202,43.462,67.948,40.292,68.062 M39.415,64.087
	c0.658-1.057,13.285-2.316,16.695-3.609C48.643,63.763,47.196,63.563,39.415,64.087 M50.327,61.446
	c-0.486,0.172-2.64-0.008-1.971-0.594C49.739,59.608,55.131,60.224,50.327,61.446"/>
<path fill-rule="evenodd" clip-rule="evenodd" fill="#DD005C" d="M50.299,18.29c-2.381-1.162-5.614-2.89-8.731-3.844
	c-3.045-1.051-6.302-1.479-8.144-1.887C39.483,11.972,46.586,14.177,50.299,18.29"/>
<path fill-rule="evenodd" clip-rule="evenodd" fill="#DD005C" d="M21.07,16.638c1.278-1.973,5.905-3.22,8.798-3.636
	C29.02,13.668,22.521,15.998,21.07,16.638"/>
</svg>
